<?xml version="1.0" encoding="utf-8"?>
<!-- Generator: Adobe Illustrator 16.0.4, SVG Export Plug-In . SVG Version: 6.00 Build 0)  -->
<!DOCTYPE svg PUBLIC "-//W3C//DTD SVG 1.1//EN" "http://www.w3.org/Graphics/SVG/1.1/DTD/svg11.dtd">
<svg version="1.1" id="Ebene_1" xmlns="http://www.w3.org/2000/svg" xmlns:xlink="http://www.w3.org/1999/xlink" x="0px" y="0px"
	 width="487.767px" height="487.799px" viewBox="0 0 487.767 487.799" enable-background="new 0 0 487.767 487.799"
	 xml:space="preserve">
<g>
	<path fill-rule="evenodd" clip-rule="evenodd" fill="#5176B8" d="M147.177,283.465c35.817,38.021,78.949,63.118,127.454,79.088
		c48.712,16.036,98.213,18.543,148.856,4.932c-4.898,7.844-10.397,14.05-15.987,20.141c-35.396,38.562-79.126,61.736-130.597,70.651
		c-26.646,4.614-53.117,3.875-79.524-1.804c-4.213-0.907-7.318-2.901-9.686-6.415c-19.886-29.492-32.345-61.891-38.04-96.945
		c-3.634-22.363-4.741-44.833-2.774-67.43C146.926,285.134,147.024,284.591,147.177,283.465z"/>
	<path fill-rule="evenodd" clip-rule="evenodd" fill="#787A7A" d="M346.745,268.001c-6.847-51.768-26.919-97.241-56.657-138.525
		c-30.005-41.654-68.577-72.752-117.744-91.307c15.548-5.286,30.498-8.702,45.811-10.336c45.369-4.845,88.269,3.806,128.825,24.333
		c21.101,10.68,39.611,25.011,56.338,41.671c5.748,5.726,8.76,12.606,8.384,20.816c-1.199,26.188-7.246,51.305-16.902,75.59
		c-10.954,27.548-26.388,52.408-45.486,75.032C348.665,266.043,347.935,266.743,346.745,268.001z"/>
	<path fill-rule="evenodd" clip-rule="evenodd" fill="#787A7A" d="M26.516,249.165c0.509-50.465,14.93-95.095,44.174-134.814
		c21.866-29.697,49.176-52.858,82.547-68.861c7.24-3.472,13.686-3.722,21.194-0.655c53.492,21.855,93.728,58.878,124.071,107.397
		c0.219,0.35,0.292,0.791,0.551,1.518c-50.773-8.562-100.427-4.37-149.046,11.356C101.156,180.907,59.608,207.798,26.516,249.165z"
		/>
	<path fill-rule="evenodd" clip-rule="evenodd" fill="#787A7A" d="M254.643,348.865c92.583-52.004,152.38-126.316,163.996-234.737
		c4.104,4.629,7.593,9.901,10.799,15.342c18.936,32.126,29.458,66.754,31.483,104.065c2.226,41.014-6.913,79.409-25.246,115.906
		c-3.669,7.306-9.123,11.427-17.064,13.494c-55.232,14.381-108.764,8.085-161.19-12.669
		C256.372,349.853,255.101,349.677,254.643,348.865z"/>
	<path fill-rule="evenodd" clip-rule="evenodd" fill="#787A7A" d="M182.075,452.251c-25.313-9.146-47.938-20.662-68.531-36.018
		c-43.95-32.773-69.869-77.026-82.385-129.759c-1.641-6.914-3.182-13.842-3.77-20.977c-0.418-5.072,0.958-9.268,4.06-13.174
		c26.525-33.395,59.85-57.659,99.125-73.952c13.57-5.628,27.51-10.159,41.721-13.864c0.834-0.217,1.702-0.306,3.416-0.606
		c-24.18,45.743-34.805,94.078-35.003,144.966C140.507,360.333,153.461,407.943,182.075,452.251z"/>
</g>
</svg>
